HIERARCHY
ROOT Root
{
  OFFSET 0.0 0.0 0.0
  CHANNELS 6 Xposition Yposition Zposition Zrotation Yrotation Xrotation
  JOINT Hips
  {
    OFFSET 0.0 100.0 0.0
    CHANNELS 6 Xposition Yposition Zposition Zrotation Yrotation Xrotation
    JOINT Spine1
    {
      OFFSET 5.003913 -0.037094 -0.013727
      CHANNELS 3 Zrotation Yrotation Xrotation
      JOINT Spine2
      {
        OFFSET 7.125363 -1e-06 0.0
        CHANNELS 3 Zrotation Yrotation Xrotation
        JOINT Chest
        {
          OFFSET 7.594027 1e-06 0.0
          CHANNELS 3 Zrotation Yrotation Xrotation
          JOINT Neck1
          {
            OFFSET 26.313086 -0.460272 -0.181672
            CHANNELS 3 Zrotation Yrotation Xrotation
            JOINT Neck2
            {
              OFFSET 8.045911 0.0 0.0
              CHANNELS 3 Zrotation Yrotation Xrotation
              JOINT Head
              {
                OFFSET 6.432774 0.0 0.0
                CHANNELS 3 Zrotation Yrotation Xrotation
                JOINT HeadEnd
                {
                  OFFSET 16.169773 0.06451 0.00362
                  CHANNELS 3 Zrotation Yrotation Xrotation
                }
                JOINT Jaw
                {
                  OFFSET 0.108741 3.12938 0.002639
                  CHANNELS 3 Zrotation Yrotation Xrotation
                }
                JOINT LeftEye
                {
                  OFFSET 4.45173 8.166359 3.206392
                  CHANNELS 3 Zrotation Yrotation Xrotation
                }
                JOINT RightEye
                {
                  OFFSET 4.436895 8.135758 -3.222429
                  CHANNELS 3 Zrotation Yrotation Xrotation
                }
              }
            }
          }
          JOINT LeftShoulder
          {
            OFFSET 23.218927 5.195579 1.621656
            CHANNELS 3 Zrotation Yrotation Xrotation
            JOINT LeftArm
            {
              OFFSET 15.902118 2e-06 -2e-06
              CHANNELS 3 Zrotation Yrotation Xrotation
              JOINT LeftForeArm
              {
                OFFSET 28.739307 0.0 -1e-06
                CHANNELS 3 Zrotation Yrotation Xrotation
                JOINT LeftHand
                {
                  OFFSET 27.093981 -4e-06 0.0
                  CHANNELS 3 Zrotation Yrotation Xrotation
                  JOINT LeftHandThumb1
                  {
                    OFFSET 2.276781 3.380274 0.83384
                    CHANNELS 3 Zrotation Yrotation Xrotation
                    JOINT LeftHandThumb2
                    {
                      OFFSET 4.705309 -1e-06 -1e-06
                      CHANNELS 3 Zrotation Yrotation Xrotation
                      JOINT LeftHandThumb3
                      {
                        OFFSET 2.798515 0.0 3e-06
                        CHANNELS 3 Zrotation Yrotation Xrotation
                        JOINT LeftHandThumbEnd
                        {
                          OFFSET 3.180793 4e-06 -4e-06
                          CHANNELS 3 Zrotation Yrotation Xrotation
                        }
                      }
                    }
                  }
                  JOINT LeftHandIndex1
                  {
                    OFFSET 3.247786 2.352677 0.137192
                    CHANNELS 3 Zrotation Yrotation Xrotation
                    JOINT LeftHandIndex2
                    {
                      OFFSET 6.367095 1e-06 0.0
                      CHANNELS 3 Zrotation Yrotation Xrotation
                      JOINT LeftHandIndex3
                      {
                        OFFSET 3.662364 0.0 0.0
                        CHANNELS 3 Zrotation Yrotation Xrotation
                        JOINT LeftHandIndex4
                        {
                          OFFSET 2.329242 4e-06 -4e-06
                          CHANNELS 3 Zrotation Yrotation Xrotation
                          JOINT LeftHandIndexEnd
                          {
                            OFFSET 2.767823 1e-06 0.0
                            CHANNELS 3 Zrotation Yrotation Xrotation
                          }
                        }
                      }
                    }
                  }
                  JOINT LeftHandMiddle1
                  {
                    OFFSET 3.163612 0.945023 -0.406112
                    CHANNELS 3 Zrotation Yrotation Xrotation
                    JOINT LeftHandMiddle2
                    {
                      OFFSET 6.276789 3e-06 0.0
                      CHANNELS 3 Zrotation Yrotation Xrotation
                      JOINT LeftHandMiddle3
                      {
                        OFFSET 4.35652 -1e-06 4e-06
                        CHANNELS 3 Zrotation Yrotation Xrotation
                        JOINT LeftHandMiddle4
                        {
                          OFFSET 2.996877 0.0 8e-06
                          CHANNELS 3 Zrotation Yrotation Xrotation
                          JOINT LeftHandMiddleEnd
                          {
                            OFFSET 2.323256 3e-06 -4e-06
                            CHANNELS 3 Zrotation Yrotation Xrotation
                          }
                        }
                      }
                    }
                  }
                  JOINT LeftHandRing1
                  {
                    OFFSET 2.882606 -0.309162 0.107445
                    CHANNELS 3 Zrotation Yrotation Xrotation
                    JOINT LeftHandRing2
                    {
                      OFFSET 6.033198 0.0 4e-06
                      CHANNELS 3 Zrotation Yrotation Xrotation
                      JOINT LeftHandRing3
                      {
                        OFFSET 4.350578 3e-06 0.0
                        CHANNELS 3 Zrotation Yrotation Xrotation
                        JOINT LeftHandRing4
                        {
                          OFFSET 2.651321 2e-06 -7e-06
                          CHANNELS 3 Zrotation Yrotation Xrotation
                          JOINT LeftHandRingEnd
                          {
                            OFFSET 1.937663 1e-06 -4e-06
                            CHANNELS 3 Zrotation Yrotation Xrotation
                          }
                        }
                      }
                    }
                  }
                  JOINT LeftHandPinky1
                  {
                    OFFSET 2.865315 -1.525436 0.575687
                    CHANNELS 3 Zrotation Yrotation Xrotation
                    JOINT LeftHandPinky2
                    {
                      OFFSET 5.54936 1e-06 -8e-06
                      CHANNELS 3 Zrotation Yrotation Xrotation
                      JOINT LeftHandPinky3
                      {
                        OFFSET 3.070974 0.0 -4e-06
                        CHANNELS 3 Zrotation Yrotation Xrotation
                        JOINT LeftHandPinky4
                        {
                          OFFSET 1.549672 1e-06 0.0
                          CHANNELS 3 Zrotation Yrotation Xrotation
                          JOINT LeftHandPinkyEnd
                          {
                            OFFSET 1.952123 0.0 0.0
                            CHANNELS 3 Zrotation Yrotation Xrotation
                          }
                        }
                      }
                    }
                  }
                }
              }
            }
          }
          JOINT RightShoulder
          {
            OFFSET 23.161716 5.296122 -1.380114
            CHANNELS 3 Zrotation Yrotation Xrotation
            JOINT RightArm
            {
              OFFSET -16.027195 -2e-06 1.1e-05
              CHANNELS 3 Zrotation Yrotation Xrotation
              JOINT RightForeArm
              {
                OFFSET -28.736639 4e-06 2e-06
                CHANNELS 3 Zrotation Yrotation Xrotation
                JOINT RightHand
                {
                  OFFSET -27.133619 6e-06 0.0
                  CHANNELS 3 Zrotation Yrotation Xrotation
                  JOINT RightHandThumb1
                  {
                    OFFSET -2.274328 -3.351035 -0.83067
                    CHANNELS 3 Zrotation Yrotation Xrotation
                    JOINT RightHandThumb2
                    {
                      OFFSET -4.703594 -3e-06 2e-06
                      CHANNELS 3 Zrotation Yrotation Xrotation
                      JOINT RightHandThumb3
                      {
                        OFFSET -2.794935 -4e-06 -3e-06
                        CHANNELS 3 Zrotation Yrotation Xrotation
                        JOINT RightHandThumbEnd
                        {
                          OFFSET -3.183852 4e-06 1e-06
                          CHANNELS 3 Zrotation Yrotation Xrotation
                        }
                      }
                    }
                  }
                  JOINT RightHandIndex1
                  {
                    OFFSET -3.253496 -2.33755 -0.127667
                    CHANNELS 3 Zrotation Yrotation Xrotation
                    JOINT RightHandIndex2
                    {
                      OFFSET -6.344434 0.0 0.0
                      CHANNELS 3 Zrotation Yrotation Xrotation
                      JOINT RightHandIndex3
                      {
                        OFFSET -3.654871 0.0 -8e-06
                        CHANNELS 3 Zrotation Yrotation Xrotation
                        JOINT RightHandIndex4
                        {
                          OFFSET -2.327586 -1e-06 0.0
                          CHANNELS 3 Zrotation Yrotation Xrotation
                          JOINT RightHandIndexEnd
                          {
                            OFFSET -2.770001 3e-06 8e-06
                            CHANNELS 3 Zrotation Yrotation Xrotation
                          }
                        }
                      }
                    }
                  }
                  JOINT RightHandMiddle1
                  {
                    OFFSET -3.168223 -0.944764 0.411762
                    CHANNELS 3 Zrotation Yrotation Xrotation
                    JOINT RightHandMiddle2
                    {
                      OFFSET -6.266691 -1e-06 -4e-06
                      CHANNELS 3 Zrotation Yrotation Xrotation
                      JOINT RightHandMiddle3
                      {
                        OFFSET -4.348901 0.0 0.0
                        CHANNELS 3 Zrotation Yrotation Xrotation
                        JOINT RightHandMiddle4
                        {
                          OFFSET -3.00024 2e-06 -4e-06
                          CHANNELS 3 Zrotation Yrotation Xrotation
                          JOINT RightHandMiddleEnd
                          {
                            OFFSET -2.321477 -4e-06 -4e-06
                            CHANNELS 3 Zrotation Yrotation Xrotation
                          }
                        }
                      }
                    }
                  }
                  JOINT RightHandRing1
                  {
                    OFFSET -2.885654 0.293261 -0.119232
                    CHANNELS 3 Zrotation Yrotation Xrotation
                    JOINT RightHandRing2
                    {
                      OFFSET -6.032835 -1e-06 -4e-06
                      CHANNELS 3 Zrotation Yrotation Xrotation
                      JOINT RightHandRing3
                      {
                        OFFSET -4.33881 0.0 -4e-06
                        CHANNELS 3 Zrotation Yrotation Xrotation
                        JOINT RightHandRing4
                        {
                          OFFSET -2.654903 -4e-06 -4e-06
                          CHANNELS 3 Zrotation Yrotation Xrotation
                          JOINT RightHandRingEnd
                          {
                            OFFSET -1.935122 0.0 4e-06
                            CHANNELS 3 Zrotation Yrotation Xrotation
                          }
                        }
                      }
                    }
                  }
                  JOINT RightHandPinky1
                  {
                    OFFSET -2.866241 1.503904 -0.60527
                    CHANNELS 3 Zrotation Yrotation Xrotation
                    JOINT RightHandPinky2
                    {
                      OFFSET -5.553177 -2e-06 0.0
                      CHANNELS 3 Zrotation Yrotation Xrotation
                      JOINT RightHandPinky3
                      {
                        OFFSET -3.062664 -1e-06 -4e-06
                        CHANNELS 3 Zrotation Yrotation Xrotation
                        JOINT RightHandPinky4
                        {
                          OFFSET -1.546529 2e-06 4e-06
                          CHANNELS 3 Zrotation Yrotation Xrotation
                          JOINT RightHandPinkyEnd
                          {
                            OFFSET -1.952341 0.0 -4e-06
                            CHANNELS 3 Zrotation Yrotation Xrotation
                          }
                        }
                      }
                    }
                  }
                }
              }
            }
          }
        }
      }
    }
    JOINT LeftLeg
    {
      OFFSET -8.443107 2.567604 10.043214
      CHANNELS 3 Zrotation Yrotation Xrotation
      JOINT LeftShin
      {
        OFFSET 43.229198 1e-06 -1e-06
        CHANNELS 3 Zrotation Yrotation Xrotation
        JOINT LeftFoot
        {
          OFFSET 42.298611 1e-06 1e-06
          CHANNELS 3 Zrotation Yrotation Xrotation
          JOINT LeftToeBase
          {
            OFFSET 14.165858 1e-06 0.0
            CHANNELS 3 Zrotation Yrotation Xrotation
            JOINT LeftToeEnd
            {
              OFFSET 6.7141 -0.234461 0.0
              CHANNELS 3 Zrotation Yrotation Xrotation
            }
          }
        }
      }
    }
    JOINT RightLeg
    {
      OFFSET -8.303923 2.592729 -10.047278
      CHANNELS 3 Zrotation Yrotation Xrotation
      JOINT RightShin
      {
        OFFSET -43.369682 0.0 1e-06
        CHANNELS 3 Zrotation Yrotation Xrotation
        JOINT RightFoot
        {
          OFFSET -42.260784 4e-06 2e-06
          CHANNELS 3 Zrotation Yrotation Xrotation
          JOINT RightToeBase
          {
            OFFSET -14.222245 -2e-06 -1e-06
            CHANNELS 3 Zrotation Yrotation Xrotation
            JOINT RightToeEnd
            {
              OFFSET -6.660062 0.232574 -2e-06
              CHANNELS 3 Zrotation Yrotation Xrotation
            }
          }
        }
      }
    }
  }
}
MOTION
Frames: 5
Frame Time: 0.03333333333333333
0.0 0.0 0.0 0.0 -0.0 0.0 -1.987347 46.758194 187.635971 78.159966 -54.862911 98.663734 10.605305 2.908682 0.187492 -5.317647 0.210504 -1.370035 24.025984 5.772093 -0.863256 18.237358 -0.740713 3.656564 -2.697694 -1.118005 -0.907206 -30.42238 -2.210358 -0.00206 6e-06 0.0 0.0 -0.228263 -0.288317 0.133748 -0.374779 -0.240625 0.126745 -0.27922 -0.351653 0.155756 -10.966366 -57.706432 10.83275 83.770027 -6.457518 -60.261829 10.85124 0.063454 0.095992 32.386818 71.539047 40.087929 17.636631 -26.322731 52.411201 -19.46666 -14.395598 29.410393 -2e-06 -8.774822 -2e-06 17.392431 -18.665701 5.96105 -0.609777 -1.795653 -3.889328 -4.807088 -11.046811 -2.937851 5e-06 -20.976019 0.0 -5.01997 -25.033556 -4.031883 7e-06 2e-06 1e-06 -10.634535 -5.686969 -3.565589 10.573277 -17.922951 -3.113901 4e-06 -13.821212 1e-06 -0.501777 -31.181505 -4.027016 -11.43229 -60.509956 6.984088 -13.982716 -7.150197 -2.875042 13.772733 -8.401492 -3.218241 0.347735 -34.211555 0.771654 -0.963027 -17.733368 2.62102 -0.0 -1e-06 -0.0 -17.34642 -20.095217 -4.201783 21.757561 -1.638376 3.866428 1e-06 -6.338825 1e-06 -1.697589 -22.591745 -6.194008 -0.0 -4e-06 -2e-06 -169.205856 -75.667046 -3.881361 92.728676 -27.592878 -42.819324 11.369886 0.078438 0.392337 79.227478 40.251926 89.360237 22.182121 -20.375898 49.933327 -16.701815 -16.74353 28.476536 -3e-06 -12.690602 -1e-06 15.306002 -17.678232 2.987729 -0.105918 -1.513857 -4.275882 -5.039042 -5.612873 -2.953557 4e-06 -11.020523 -2e-06 -6.111297 -15.89533 -3.840472 -0.0 -0.0 0.0 -10.283371 -5.68029 -4.34184 11.028297 -11.302405 -2.372633 -1.384268 -14.238583 -6.320122 -0.625436 -26.924191 -3.827601 -4.452681 -49.118607 -3.817793 -13.708527 -7.363477 -3.720942 18.141151 -14.052739 -3.242675 7e-06 -18.787271 -2e-06 -0.429711 -8.456047 2.555504 -1e-06 -0.0 -0.0 -15.923536 -20.094486 -5.473587 30.41921 -7.190825 1.735927 2e-06 -8.162925 -1e-06 -1.861902 -22.861469 -6.167942 -2e-06 -3e-06 -2e-06 159.03125 -7.604153 -2.428542 71.861107 -3.218498 0.274627 -84.42939 6.56302 -6.238382 -33.362659 1.555472 1.379012 -0.999999 0.0 -0.0 -71.620155 3.025039 4.887231 128.022705 0.170054 0.230958 -86.965218 4.538956 0.217746 -25.438232 0.885666 1.403631 -1.000001 -0.0 -1e-06 
0.0 0.0 0.0 0.0 -0.0 0.0 -2.205055 46.920166 189.415115 76.586205 -54.731804 99.490814 10.546196 2.994417 0.340079 -5.298282 0.192903 -0.856977 24.1553 6.006201 -0.123469 18.135494 -1.158426 3.66726 -2.7335 -1.011534 -1.056689 -30.454762 -2.489696 -0.12227 6e-06 -0.0 -0.0 -0.237627 -0.328699 0.153838 -0.284718 -0.291041 0.172096 -0.203531 -0.381506 0.150226 -12.042586 -57.585976 11.597775 86.189156 -7.123211 -59.602692 10.557968 -0.208035 0.083002 37.09491 73.951591 45.161983 17.636635 -26.322725 52.41119 -19.466661 -14.395594 29.410385 -2e-06 -8.774821 -3e-06 17.177124 -18.46986 6.017481 -0.609776 -1.795654 -3.889328 -4.80709 -11.04681 -2.937852 5e-06 -20.976021 -0.0 -5.019969 -25.033556 -4.031884 6e-06 1e-06 -0.0 -10.634535 -5.686972 -3.565588 10.573274 -17.922951 -3.113901 3e-06 -13.821212 -0.0 -0.501777 -31.181505 -4.027018 -11.398503 -60.296719 6.986104 -13.982712 -7.150199 -2.875043 13.77273 -8.401492 -3.21824 0.347736 -34.211555 0.771651 -0.963027 -17.73337 2.621018 -0.0 -0.0 0.0 -17.34642 -20.095221 -4.201783 21.757557 -1.638377 3.86643 1e-06 -6.338825 0.0 -1.697588 -22.591743 -6.194009 -0.0 -3e-06 -2e-06 -162.24913 -76.326767 -10.409491 90.503807 -29.003302 -42.24416 10.99548 0.052281 0.424812 78.102928 39.588886 89.959373 22.182119 -20.375895 49.933308 -16.701813 -16.74353 28.47653 -3e-06 -12.690601 -1e-06 15.269786 -17.636271 2.835212 -0.105918 -1.513857 -4.275881 -5.03904 -5.612869 -2.953556 5e-06 -11.020525 -1e-06 -6.111297 -15.89533 -3.840469 -0.0 -0.0 0.0 -10.28337 -5.680288 -4.341838 11.028296 -11.302404 -2.372632 -1.384267 -14.238586 -6.32012 -0.625439 -26.924198 -3.8276 -4.317526 -49.046074 -3.885951 -13.708525 -7.363474 -3.720939 18.141146 -14.052739 -3.242672 8e-06 -18.78727 -4e-06 -0.429712 -8.456043 2.555504 -1e-06 -0.0 0.0 -15.923534 -20.094482 -5.473584 30.419205 -7.190824 1.735926 2e-06 -8.162922 -1e-06 -1.861901 -22.861467 -6.167939 -0.0 -3e-06 -1e-06 161.274261 -9.055943 -3.139561 67.880707 -3.34729 0.546941 -80.795006 6.856718 -6.113066 -32.29248 1.614426 1.39458 -1.0 0.0 -0.0 -69.269043 4.685698 3.81789 125.413956 0.245501 0.216478 -84.316223 4.014606 0.823056 -25.319427 0.855106 1.423836 -1.000003 -0.0 -0.0 
0.0 0.0 0.0 0.0 -0.0 0.0 -2.39681 47.165154 191.116302 75.407394 -54.710957 100.257912 10.371085 3.024842 0.384602 -5.393522 0.04753 -0.489464 24.482708 6.165275 0.471134 17.975573 -1.552164 3.627619 -2.819865 -0.79151 -1.001384 -30.462568 -2.585322 -0.234425 7e-06 -0.0 0.0 -0.261731 -0.275858 0.141043 -0.246105 -0.244382 0.183775 -0.162568 -0.322037 0.11415 -12.337031 -57.507305 11.723716 87.949905 -7.49682 -58.785084 9.956758 -0.377551 0.065288 40.929394 75.693886 49.012562 17.636627 -26.322746 52.411213 -19.466665 -14.3956 29.410398 -1e-06 -8.774822 -2e-06 17.136505 -18.383427 6.101825 -0.609778 -1.795654 -3.889328 -4.80709 -11.046811 -2.93785 4e-06 -20.976021 2e-06 -5.019972 -25.03356 -4.03188 6e-06 1e-06 -0.0 -10.634535 -5.68697 -3.565588 10.573275 -17.922955 -3.113901 3e-06 -13.821213 2e-06 -0.501779 -31.181511 -4.027016 -11.357215 -60.314785 7.133934 -13.982718 -7.150198 -2.875042 13.772731 -8.401495 -3.218242 0.347732 -34.211559 0.771659 -0.96303 -17.733372 2.621022 0.0 -0.0 -0.0 -17.346424 -20.095221 -4.201782 21.757563 -1.638376 3.866428 2e-06 -6.338825 1e-06 -1.69759 -22.591751 -6.194007 -1e-06 -4e-06 -3e-06 -157.200729 -76.858307 -15.142333 88.793694 -29.993744 -42.445915 10.90067 0.069703 0.429666 76.326927 38.171734 89.809128 22.182106 -20.375891 49.933319 -16.701818 -16.743528 28.476532 -1e-06 -12.690601 1e-06 15.233094 -17.683229 2.747563 -0.105917 -1.513859 -4.275882 -5.03904 -5.612869 -2.953556 3e-06 -11.020525 -2e-06 -6.111298 -15.895334 -3.840471 -0.0 0.0 -0.0 -10.283367 -5.680291 -4.341838 11.028294 -11.302404 -2.372634 -1.384268 -14.238581 -6.320122 -0.625437 -26.924191 -3.827603 -4.142631 -49.036797 -4.030678 -13.708523 -7.363478 -3.720939 18.141151 -14.052739 -3.242677 8e-06 -18.787268 -4e-06 -0.429712 -8.456043 2.555503 -0.0 -0.0 2e-06 -15.923532 -20.094486 -5.473585 30.419218 -7.190823 1.735923 3e-06 -8.162925 -0.0 -1.861901 -22.861471 -6.167944 -0.0 -3e-06 -1e-06 162.321136 -9.891428 -3.81073 65.639618 -3.574996 0.695323 -77.721085 5.998264 -6.355243 -29.4422 1.70209 1.541147 -0.999998 -0.0 -0.0 -67.197395 5.810485 3.032953 122.879898 0.326732 0.200399 -82.141273 3.851227 1.591739 -25.604116 0.836792 1.398312 -1.000002 0.0 -0.0 
0.0 0.0 0.0 0.0 -0.0 0.0 -2.609921 47.411701 192.615555 74.727768 -54.742123 101.149261 10.286638 2.867111 0.435352 -5.459747 0.024082 -0.343396 24.599993 6.059556 0.588203 17.73551 -1.412221 3.767112 -2.847817 -0.805904 -0.931306 -30.443878 -2.69959 -0.298179 6e-06 -0.0 0.0 -0.267917 -0.273636 0.147456 -0.176191 -0.247576 0.207612 -0.095532 -0.312495 0.102069 -11.936201 -57.339417 11.294181 89.285431 -7.744298 -58.175903 9.240723 -0.47101 0.037366 44.956055 76.70076 52.625156 17.636633 -26.322733 52.411201 -19.466665 -14.395597 29.410395 -1e-06 -8.774823 -2e-06 17.010792 -18.279991 6.092618 -0.609777 -1.795654 -3.889328 -4.80709 -11.046813 -2.937851 5e-06 -20.976021 1e-06 -5.019971 -25.033562 -4.031881 6e-06 0.0 0.0 -10.634537 -5.686972 -3.565588 10.573275 -17.922955 -3.113901 2e-06 -13.821214 -0.0 -0.501776 -31.181511 -4.027017 -11.483252 -60.194675 7.372068 -13.982717 -7.150199 -2.875043 13.772732 -8.401493 -3.218242 0.347734 -34.211559 0.771654 -0.963028 -17.733372 2.621019 -0.0 -1e-06 1e-06 -17.346422 -20.095222 -4.201782 21.757561 -1.638376 3.866429 2e-06 -6.338825 1e-06 -1.69759 -22.591751 -6.194008 -0.0 -3e-06 -1e-06 -154.53421 -77.421005 -17.630871 87.560852 -30.685581 -42.400249 11.397757 0.350747 0.478993 73.661621 37.15303 88.290794 22.182119 -20.375891 49.933319 -16.701807 -16.743521 28.476524 -2e-06 -12.690598 -2e-06 15.261138 -17.577324 2.612743 -0.105921 -1.513854 -4.275881 -5.039041 -5.612872 -2.953557 3e-06 -11.020525 -2e-06 -6.111297 -15.895329 -3.840471 0.0 0.0 0.0 -10.283369 -5.680288 -4.341839 11.02829 -11.302406 -2.372632 -1.384269 -14.238579 -6.320121 -0.625438 -26.924187 -3.827603 -4.048741 -48.879353 -4.146214 -13.708522 -7.363474 -3.720941 18.141146 -14.05274 -3.242674 5e-06 -18.787268 -4e-06 -0.429711 -8.456042 2.555504 0.0 0.0 1e-06 -15.923532 -20.094482 -5.473587 30.419205 -7.190826 1.735928 2e-06 -8.162925 -0.0 -1.861901 -22.861467 -6.167942 -0.0 -4e-06 -1e-06 162.072556 -10.102937 -4.043166 65.761177 -3.720348 0.695078 -75.64624 5.123524 -7.15092 -25.646391 1.755275 1.795951 -1.0 0.0 -0.0 -65.402214 6.193069 2.390261 120.628304 0.409965 0.211874 -80.103592 3.878367 2.628347 -26.223719 0.834698 1.348625 -1.000002 0.0 -0.0 
0.0 0.0 0.0 0.0 -0.0 0.0 -2.796931 47.774746 194.01123 74.432404 -54.842445 102.222504 10.264636 2.620253 0.466146 -5.540637 -0.020235 -0.41629 24.595621 5.79614 0.36197 17.397627 -0.939447 3.933057 -2.866983 -0.797609 -0.814423 -30.2955 -2.915268 -0.224504 6e-06 -0.0 0.0 -0.275197 -0.239279 0.137064 -0.161677 -0.217076 0.198484 -0.091775 -0.272043 0.09018 -10.721819 -57.205105 10.198688 90.058876 -7.883303 -57.454075 8.468522 -0.509223 0.013366 49.25457 77.40522 56.174625 17.636625 -26.322735 52.411194 -19.466661 -14.395597 29.410393 -1e-06 -8.774819 -2e-06 16.853376 -18.225 6.048451 -0.609777 -1.795653 -3.889328 -4.807087 -11.046807 -2.93785 4e-06 -20.976013 1e-06 -5.019969 -25.033546 -4.031882 6e-06 1e-06 -1e-06 -10.634532 -5.686968 -3.565587 10.573271 -17.922947 -3.1139 2e-06 -13.821206 2e-06 -0.501777 -31.181498 -4.027012 -11.42784 -60.000862 7.38757 -13.982714 -7.150197 -2.875041 13.772729 -8.401489 -3.218241 0.347735 -34.211544 0.771654 -0.963028 -17.733366 2.621021 0.0 -1e-06 -0.0 -17.346413 -20.095211 -4.201784 21.757555 -1.638375 3.866427 1e-06 -6.338823 1e-06 -1.697588 -22.591734 -6.194004 -1e-06 -5e-06 -1e-06 -155.348007 -78.109085 -16.798979 86.63829 -31.150522 -42.976864 13.052817 0.635102 0.542353 70.800278 35.452 85.983223 22.182116 -20.375893 49.933319 -16.701803 -16.74353 28.476528 -3e-06 -12.6906 -2e-06 15.340506 -17.573225 2.521203 -0.105919 -1.513857 -4.275881 -5.039041 -5.612866 -2.953557 3e-06 -11.020519 -2e-06 -6.111296 -15.895324 -3.840471 -0.0 -2e-06 0.0 -10.283367 -5.680287 -4.341839 11.028291 -11.302399 -2.372631 -1.384267 -14.238575 -6.32012 -0.625439 -26.924179 -3.827599 -4.003438 -48.854122 -4.202156 -13.708523 -7.363474 -3.720939 18.141146 -14.052734 -3.242672 7e-06 -18.787264 -1e-06 -0.429711 -8.456039 2.555504 -0.0 -0.0 1e-06 -15.923532 -20.094475 -5.473586 30.419207 -7.190825 1.735927 3e-06 -8.162922 1e-06 -1.861902 -22.861464 -6.167937 -0.0 -3e-06 -1e-06 160.501404 -9.704849 -3.808744 68.115814 -3.749362 0.547147 -74.895248 3.596259 -8.091172 -21.990671 1.749424 2.051342 -0.999999 0.0 0.0 -63.780361 5.864911 1.757771 118.470985 0.462726 0.227776 -78.484344 4.087832 3.786977 -26.84425 0.836214 1.311937 -1.000001 0.0 -0.0 
